<svg aria-hidden="true" style="position:absolute;width:0;height:0;overflow:hidden" xmlns="http://www.w3.org/2000/svg">
    <defs>
        <symbol id="facebook" viewBox="0 0 32 32">
            <path
                d="M18.667 18H22l1.333-5.333h-4.667V10c0-1.373 0-2.667 2.667-2.667h2v-4.48c-.435-.057-2.076-.187-3.809-.187-3.62 0-6.191 2.209-6.191 6.267v3.733h-4v5.333h4v11.333h5.333V17.999z" />
        </symbol>
        <symbol id="instagram" viewBox="0 0 32 32">
            <path
                d="M16 2.667c3.623 0 4.075.013 5.496.08 1.42.067 2.387.289 3.237.62a6.51 6.51 0 0 1 2.363 1.537 6.538 6.538 0 0 1 1.537 2.363c.329.849.553 1.817.62 3.237.063 1.421.08 1.873.08 5.496s-.013 4.075-.08 5.496c-.067 1.42-.291 2.387-.62 3.237a6.53 6.53 0 0 1-1.537 2.363 6.55 6.55 0 0 1-2.363 1.537c-.849.329-1.817.553-3.237.62-1.421.063-1.873.08-5.496.08s-4.075-.013-5.496-.08c-1.42-.067-2.387-.291-3.237-.62a6.53 6.53 0 0 1-2.363-1.537 6.53 6.53 0 0 1-1.537-2.363c-.331-.849-.553-1.817-.62-3.237-.063-1.421-.08-1.873-.08-5.496s.013-4.075.08-5.496c.067-1.421.289-2.387.62-3.237a6.516 6.516 0 0 1 1.537-2.363 6.53 6.53 0 0 1 2.363-1.537c.851-.331 1.816-.553 3.237-.62 1.421-.063 1.873-.08 5.496-.08zm0 6.666a6.67 6.67 0 0 0-4.714 11.381 6.67 6.67 0 0 0 9.428 0A6.668 6.668 0 0 0 16 9.333zM24.667 9a1.667 1.667 0 1 0-3.334 0 1.667 1.667 0 0 0 3.334 0zM16 12a4.003 4.003 0 0 1 4 4 4.003 4.003 0 0 1-4 4 4.003 4.003 0 0 1-4-4 4.003 4.003 0 0 1 4-4z" />
        </symbol>
        <symbol id="youtube" viewBox="0 0 32 32">
            <path
                d="M28.724 8.664c.609 2.376.609 7.336.609 7.336s0 4.96-.609 7.336c-.339 1.313-1.329 2.347-2.584 2.696-2.279.635-10.14.635-10.14.635s-7.857 0-10.14-.635c-1.26-.355-2.249-1.387-2.584-2.696C2.667 20.96 2.667 16 2.667 16s0-4.96.609-7.336c.339-1.313 1.329-2.347 2.584-2.696C8.143 5.333 16 5.333 16 5.333s7.861 0 10.14.635c1.26.355 2.249 1.387 2.584 2.696zM13.333 20.667l8-4.667-8-4.667v9.333z" />
        </symbol>
        <symbol id="arrow-left" viewBox="0 0 58 32">
            <path fill="#f6f5ef" style="fill:var(--color1, #f6f5ef)"
                d="M17.6 2.144 0 16l17.6 13.856V18.4h40v-4.8h-40V2.144z" />
        </symbol>
        <symbol id="arrow-right" viewBox="0 0 58 32">
            <path fill="#f6f5ef" style="fill:var(--color1, #f6f5ef)"
                d="M40 2.144 57.6 16 40 29.856V18.4H0v-4.8h40V2.144z" />
        </symbol>
        <symbol id="arrow-up" viewBox="0 0 17 32">
            <path fill="#f6f5ef" style="fill:var(--color1, #f6f5ef)"
                d="M0 9.778 8.533 0l8.533 9.778h-7.055V32H7.055V9.778H0z" />
        </symbol>
        <symbol id="close" viewBox="0 0 32 32">
            <path fill="none" stroke="#f6f5ef" style="stroke:var(--color1, #f6f5ef)" stroke-linejoin="round"
                stroke-linecap="round" stroke-width="1.733" d="M24 8 8 24M8 8l16 16" />
        </symbol>
        <symbol id="menu" viewBox="0 0 32 32">
            <path fill="#f6f5ef" style="fill:var(--color1, #f6f5ef)"
                d="M2.667 7.993c0-.733.595-1.327 1.327-1.327h10.68a1.326 1.326 0 0 1 0 2.654H3.994a1.326 1.326 0 0 1-1.327-1.327zm0 8.007c0-.733.595-1.327 1.327-1.327h24.013a1.326 1.326 0 0 1 0 2.654H3.994A1.326 1.326 0 0 1 2.667 16zm1.326 6.68a1.326 1.326 0 0 0 0 2.654h16.013a1.326 1.326 0 0 0 0-2.654H3.993z" />
        </symbol>
        <symbol id="logo" viewBox="0 0 23 23">
            <mask id="mask0_3500_21" style="mask-type:alpha" maskUnits="userSpaceOnUse" x="0" y="0" width="23"
                height="23">
                <path
                    d="M0 18.4153L5.18842 23H20.4087L22.5879 19.9381L0.00191667 18.4153H0ZM13.4023 0V18.2783L20.4068 18.7603L13.4023 0ZM12.4478 3.08008L2.32779 17.481L12.4478 18.1642V3.08008Z"
                    fill="black" />
            </mask>
            <g mask="url(#mask0_3500_21)">
                <path d="M0 0H23V23H0V0Z" fill="url(#paint0_linear_3500_21)" />
            </g>
            <defs>
                <linearGradient id="paint0_linear_3500_21" x1="9.79396" y1="3.48665e-06" x2="21.5409" y2="0.444325"
                    gradientUnits="userSpaceOnUse">
                    <stop stop-color="#BEC7C2" />
                    <stop offset="1" stop-color="#A1B5BA" />
                </linearGradient>
            </defs>
        </symbol>
    </defs>
</svg>